<?xml version="1.0" encoding="utf-8"?>
<!-- Generator: Adobe Illustrator 21.0.0, SVG Export Plug-In . SVG Version: 6.00 Build 0)  -->
<svg version="1.1" id="Layer_1" xmlns="http://www.w3.org/2000/svg" xmlns:xlink="http://www.w3.org/1999/xlink" x="0px" y="0px"
	 viewBox="0 0 200 200" enable-background="new 0 0 200 200" xml:space="preserve">
<path fill-opacity="0.2" fill="#eee" d="M178.5,66.8c-4.3-10.2-10.3-19.1-18-26.6c-7.7-7.5-16.6-13.4-26.9-17.7c-10.3-4.3-21.5-6.4-33.6-6.4
	c-12.1,0-23.3,2.1-33.6,6.4c-10.3,4.3-19.3,10.1-26.9,17.7c-7.7,7.5-13.7,16.4-18,26.6C17.2,77,15,88.1,15,100
	c0,11.9,2.2,23,6.5,33.2c4.3,10.2,10.3,19.1,18,26.6c7.7,7.5,16.6,13.4,26.9,17.7c10.3,4.3,21.5,6.4,33.6,6.4
	c12.1,0,23.3-2.1,33.6-6.4c10.3-4.3,19.3-10.1,26.9-17.7c7.7-7.5,13.7-16.4,18-26.6c4.3-10.2,6.5-21.3,6.5-33.2
	C185,88.1,182.8,77,178.5,66.8 M49.3,93.9c9.5-3.1,22-7.1,22-7.1c27.6-8.8,31.3-19.2,31.3-19.2s5.8,10.4,25.9,17.3
	c0,0,11.1,3.6,21.4,7.4c0.5,1,1,2,1.5,3.1c1.8,4.3,3,8.8,3.7,13.5h-14.2c0-0.1-0.1-0.2-0.1-0.2c-1-2.4-2.5-4.5-4.3-6.3
	c-1.8-1.8-4-3.2-6.4-4.2c-2.4-1-5.1-1.5-8-1.5c-2.9,0-5.5,0.5-8,1.5c-2.4,1-4.6,2.4-6.4,4.2c-1.8,1.8-3.2,3.9-4.3,6.3
	c-0.3,0.8-0.6,1.6-0.8,2.4h-5.4c-0.2-0.8-0.5-1.6-0.8-2.4c-1-2.4-2.4-4.5-4.3-6.3c-1.8-1.8-4-3.2-6.4-4.2c-2.4-1-5.1-1.5-8-1.5
	c-2.9,0-5.5,0.5-8,1.5c-2.4,1-4.6,2.4-6.4,4.2c-1.8,1.8-3.2,3.9-4.3,6.3c0,0.1-0.1,0.2-0.1,0.2H44.9c0.7-4.7,1.9-9.2,3.7-13.5
	C48.8,94.8,49,94.4,49.3,93.9 M134.2,116.5c0,1.7-0.3,3.3-0.9,4.7c-0.6,1.4-1.5,2.7-2.5,3.8c-1.1,1.1-2.4,1.9-3.8,2.5
	c-1.5,0.6-3,0.9-4.7,0.9c-1.7,0-3.3-0.3-4.7-0.9c-1.5-0.6-2.7-1.4-3.8-2.5c-1.1-1.1-1.9-2.3-2.5-3.8c-0.6-1.4-0.9-3-0.9-4.7
	c0-1.7,0.3-3.2,0.9-4.7c0.6-1.4,1.5-2.7,2.5-3.8c1.1-1.1,2.4-1.9,3.8-2.5c1.5-0.6,3-0.9,4.7-0.9c1.7,0,3.3,0.3,4.7,0.9
	c1.4,0.6,2.7,1.4,3.8,2.5c1.1,1.1,1.9,2.3,2.5,3.8C133.9,113.2,134.2,114.8,134.2,116.5 M89.8,116.5c0,1.7-0.3,3.3-0.9,4.7
	c-0.6,1.4-1.5,2.7-2.5,3.8c-1.1,1.1-2.4,1.9-3.8,2.5c-1.5,0.6-3,0.9-4.7,0.9c-1.7,0-3.3-0.3-4.7-0.9c-1.5-0.6-2.7-1.4-3.8-2.5
	c-1.1-1.1-1.9-2.3-2.5-3.8c-0.6-1.4-0.9-3-0.9-4.7c0-1.7,0.3-3.2,0.9-4.7c0.6-1.4,1.5-2.7,2.5-3.8c1.1-1.1,2.4-1.9,3.8-2.5
	c1.5-0.6,3-0.9,4.7-0.9c1.7,0,3.3,0.3,4.7,0.9c1.5,0.6,2.7,1.4,3.8,2.5c1.1,1.1,1.9,2.3,2.5,3.8C89.5,113.2,89.8,114.8,89.8,116.5
	 M139.6,156.3c-5,4.9-10.9,8.8-17.7,11.6c-6.7,2.8-14.1,4.2-22,4.2s-15.2-1.4-22-4.2c-6.7-2.8-12.6-6.7-17.7-11.6
	c-5-4.9-8.9-10.7-11.8-17.4c-2.7-6.5-4.2-13.5-4.2-21h13.3c0.1,2.3,0.6,4.5,1.5,6.5c1,2.4,2.5,4.5,4.3,6.3c1.8,1.8,4,3.2,6.4,4.2
	c2.4,1,5.1,1.5,8,1.5c2.9,0,5.5-0.5,8-1.5c2.4-1,4.6-2.4,6.4-4.2c1.8-1.8,3.3-3.9,4.3-6.3c0.7-1.6,1.1-3.3,1.4-5.1h4.3
	c0.2,1.8,0.7,3.5,1.4,5.1c1,2.4,2.5,4.5,4.3,6.3c1.8,1.8,4,3.2,6.4,4.2c2.4,1,5.1,1.5,8,1.5c2.9,0,5.5-0.5,8-1.5
	c2.4-1,4.6-2.4,6.4-4.2c1.8-1.8,3.3-3.9,4.3-6.3c0.9-2,1.4-4.2,1.5-6.5h13.3c-0.1,7.5-1.5,14.5-4.2,21
	C148.6,145.5,144.7,151.3,139.6,156.3"/>
</svg>
